<?xml version="1.0" standalone="no"?>
<!DOCTYPE svg PUBLIC "-//W3C//DTD SVG 20010904//EN"
 "http://www.w3.org/TR/2001/REC-SVG-20010904/DTD/svg10.dtd">
<svg version="1.0" xmlns="http://www.w3.org/2000/svg"
 width="960.000000pt" height="960.000000pt" viewBox="0 0 960.000000 960.000000"
 preserveAspectRatio="xMidYMid meet">
<metadata>
Created by potrace 1.14, written by Peter Selinger 2001-2017
</metadata>
<g transform="translate(0.000000,960.000000) scale(0.100000,-0.100000)"
fill="#000000" stroke="none">
<path d="M0 4800 l0 -4800 30 0 c29 0 31 2 26 33 -3 17 -8 64 -12 102 -4 39
-9 84 -10 100 -12 110 0 157 22 89 l13 -39 -4 35 c-3 19 -2 29 1 23 3 -7 12
-13 19 -13 8 0 17 -10 21 -22 3 -12 13 -28 20 -36 16 -15 38 -7 28 11 -5 9 -4
9 5 1 10 -9 10 -17 1 -34 -8 -15 -8 -20 -1 -16 13 9 14 -13 2 -33 -11 -17 7
-63 22 -58 6 2 12 16 14 33 3 16 11 33 19 37 9 5 12 17 9 35 -5 26 -5 26 5 4
5 -13 7 -29 3 -35 -5 -7 -13 -31 -19 -55 -9 -34 -8 -44 3 -54 8 -6 13 -7 12
-2 -5 21 14 63 38 84 l25 22 -7 242 c-4 132 -3 237 1 233 5 -5 12 -95 16 -200
10 -278 12 -306 21 -300 4 2 10 -4 14 -14 6 -18 22 -33 34 -33 4 0 7 38 8 84
2 75 0 85 -17 90 -34 11 -58 96 -28 96 8 0 22 -10 30 -22 15 -21 16 5 18 297
1 176 4 246 5 157 3 -151 5 -163 21 -157 35 15 47 10 50 -17 4 -31 -13 -37
-49 -18 -16 9 -19 7 -19 -13 0 -31 18 -47 52 -47 l28 0 0 318 c0 174 -4 322
-8 328 -7 10 -65 44 -76 44 -3 0 -7 -37 -9 -82 l-3 -83 -2 87 -2 88 -40 20
-40 20 -2 -257 -2 -258 -6 260 c-3 143 -7 261 -8 261 -1 1 -52 29 -112 64 -61
34 -110 66 -110 71 0 10 36 -7 139 -65 36 -20 71 -34 78 -32 8 3 16 -1 20 -10
3 -8 23 -24 44 -35 39 -19 39 -19 39 1 0 22 -33 48 -69 53 -12 2 -26 8 -29 14
-4 6 -55 37 -115 68 -59 32 -107 62 -107 66 0 11 24 1 103 -43 37 -22 79 -43
92 -48 24 -9 25 -8 26 33 1 43 3 39 13 -24 5 -28 13 -39 41 -52 20 -9 38 -17
40 -17 3 0 6 60 7 133 l2 132 6 -139 5 -139 35 -18 c33 -18 35 -18 42 -2 6 16
8 15 14 -5 6 -21 50 -52 74 -52 6 0 10 49 10 140 l0 139 -48 28 c-26 15 -62
38 -81 51 -19 12 -41 20 -48 18 -7 -3 -13 -1 -13 4 0 6 -46 40 -103 76 -210
135 -212 136 -215 172 -2 17 -1 32 2 32 3 0 50 -29 105 -65 55 -36 105 -65
110 -65 5 0 11 -4 13 -8 2 -4 20 -18 40 -31 l38 -23 0 36 c0 31 -5 38 -39 56
-29 14 -41 16 -44 7 -4 -7 -6 -6 -6 4 -1 10 -45 41 -111 79 -61 35 -110 67
-110 72 0 10 5 7 120 -61 47 -28 89 -51 93 -51 4 0 25 -11 45 -25 45 -31 52
-31 52 -2 0 17 -10 28 -36 40 -19 10 -39 15 -44 12 -4 -3 -10 2 -13 10 -3 7
-21 22 -39 31 -70 36 -169 96 -165 100 3 3 49 -20 103 -50 53 -30 101 -53 106
-50 4 3 8 1 8 -5 0 -6 18 -20 40 -31 22 -11 40 -17 40 -13 0 3 10 -3 22 -14
37 -33 148 -84 169 -78 13 4 19 2 19 -8 0 -13 55 -47 76 -47 4 0 15 -6 23 -14
35 -30 690 -296 729 -296 7 0 12 4 12 10 0 10 -3 13 -76 70 -81 63 -103 134
-68 225 28 73 28 71 -13 89 -133 61 -310 148 -388 190 -85 46 -94 49 -165 49
-48 0 -58 2 -27 4 26 2 47 8 47 13 0 7 -42 34 -125 79 -65 36 -131 76 -143 88
-6 6 -21 15 -32 18 -11 3 -20 11 -20 16 0 6 -4 8 -8 5 -4 -2 -32 11 -62 29
-50 31 -55 32 -68 17 -13 -16 -13 -16 -8 0 3 11 -4 24 -18 35 -12 10 -22 20
-22 23 -1 3 -6 15 -13 28 -9 17 -9 22 1 23 29 3 54 -3 63 -15 24 -29 200 -120
215 -111 6 4 26 -7 46 -24 43 -39 98 -67 158 -82 25 -6 46 -15 46 -20 0 -9
112 -69 129 -69 5 0 24 12 43 27 32 26 32 26 11 2 -28 -30 -28 -38 -5 -56 15
-13 15 -13 -5 -4 -28 14 -56 14 -51 0 6 -18 142 -87 286 -144 75 -31 147 -60
159 -67 12 -6 29 -8 37 -5 26 10 18 37 -15 49 -16 6 -28 12 -26 14 2 3 16 0
31 -5 33 -13 33 -1 0 30 -43 40 -66 99 -60 156 6 66 16 104 25 98 8 -4 37 64
33 78 -2 8 22 37 32 37 3 0 3 -6 0 -13 -5 -13 44 -47 69 -47 9 0 29 -14 45
-30 17 -17 38 -30 48 -30 9 0 24 -9 33 -19 9 -10 27 -21 40 -23 36 -5 50 -34
27 -51 -11 -8 -16 -19 -12 -26 5 -8 14 -4 28 14 10 14 27 25 36 24 10 0 12 -3
5 -5 -7 -3 -10 -11 -7 -19 3 -7 1 -16 -5 -20 -6 -3 -11 -1 -11 5 0 6 -5 8 -10
5 -6 -3 -10 -15 -10 -25 0 -10 -7 -26 -16 -35 -15 -15 -18 -15 -34 0 -15 14
-18 14 -23 1 -4 -11 -1 -13 10 -9 10 4 14 2 10 -5 -4 -6 -21 -13 -37 -17 -17
-4 -30 -11 -30 -16 0 -6 -7 -9 -16 -7 -9 2 -21 -4 -27 -13 -8 -13 -2 -24 31
-53 64 -58 89 -76 122 -88 20 -6 29 -15 26 -24 -3 -7 4 -20 14 -27 11 -8 17
-17 12 -22 -4 -5 -2 -5 4 -2 7 4 25 0 40 -8 16 -8 32 -15 35 -15 3 0 13 19 23
41 17 37 20 40 29 23 6 -11 15 -22 21 -26 6 -5 1 -8 -12 -8 -27 0 -41 -28 -21
-42 11 -8 10 -9 -3 -4 -24 7 -35 -14 -15 -29 9 -7 13 -16 9 -20 -4 -5 -1 -5 5
-1 14 8 65 -6 205 -57 53 -20 98 -33 101 -30 3 2 10 -5 17 -16 6 -12 16 -21
23 -21 7 0 6 4 -3 10 -12 8 -11 10 8 10 12 0 22 -5 22 -11 0 -6 9 -8 21 -4 15
5 19 4 15 -4 -4 -6 0 -11 8 -11 9 0 16 -5 16 -11 0 -7 13 -9 38 -5 26 4 31 3
17 -4 -11 -5 -14 -9 -7 -9 7 -1 10 -6 7 -12 -4 -6 3 -5 15 3 18 10 24 10 27 1
3 -7 13 -13 23 -13 10 0 21 -3 24 -8 14 -22 -140 5 -173 32 -11 8 -13 8 -7 -1
9 -16 7 -16 -32 -2 -18 6 -30 15 -26 20 3 5 -9 6 -27 2 -20 -4 -30 -2 -26 4 3
5 -5 8 -21 5 -30 -4 -86 14 -79 25 3 5 -6 9 -19 9 -28 2 -33 -23 -6 -33 9 -4
41 -31 70 -60 29 -29 56 -53 60 -53 14 0 47 -45 44 -60 -3 -13 -2 -13 7 0 8
12 16 9 45 -19 29 -28 33 -37 24 -50 -10 -13 -10 -14 1 -4 11 9 21 6 47 -14
19 -14 31 -30 27 -36 -3 -5 -2 -7 4 -4 5 3 23 -6 39 -21 17 -15 21 -20 10 -12
-19 14 -20 14 -7 -3 7 -9 35 -27 62 -39 26 -12 45 -26 43 -30 -3 -4 1 -8 9 -8
10 0 13 -7 10 -18 -3 -15 6 -23 42 -36 46 -18 46 -18 28 -39 -10 -11 -13 -17
-7 -14 7 4 14 1 17 -7 3 -7 20 -16 38 -20 18 -3 29 -9 26 -13 -4 -3 -2 -12 4
-20 9 -10 8 -13 -2 -13 -11 0 -11 -2 1 -10 8 -5 10 -10 5 -10 -6 0 -17 6 -24
13 -6 6 -15 12 -19 13 -4 0 -23 4 -42 9 -19 5 -39 9 -45 10 -5 0 -41 5 -80 9
-38 5 -72 8 -74 7 -2 -2 -7 2 -10 7 -4 6 -15 6 -30 1 -20 -8 -22 -11 -10 -26
11 -13 6 -12 -23 4 -36 21 -111 34 -123 21 -11 -11 79 -68 134 -84 31 -9 61
-20 68 -25 7 -6 13 -6 17 0 3 5 -7 21 -24 34 -55 47 -31 38 41 -14 51 -38 88
-56 132 -66 33 -8 70 -21 81 -29 11 -8 33 -14 48 -14 16 0 28 -5 28 -11 0 -5
6 -7 13 -3 7 5 6 0 -3 -11 -14 -17 -13 -18 7 -13 13 4 26 2 29 -3 11 -18 -76
-14 -89 4 -5 7 -6 2 -2 -10 4 -14 2 -23 -4 -23 -6 0 -11 4 -11 8 0 24 -148 67
-283 83 -100 12 -415 7 -464 -7 -45 -12 -22 -30 76 -57 70 -19 123 -27 187
-28 66 -1 80 -3 56 -9 -18 -4 -35 -10 -38 -13 -6 -6 61 -27 84 -27 7 0 11 -4
8 -9 -3 -5 -47 2 -98 15 -88 23 -208 32 -208 16 0 -7 123 -44 305 -92 39 -10
59 -19 45 -19 -14 0 -41 3 -60 8 -116 30 -243 64 -300 81 -46 13 -87 18 -140
16 -41 -2 -88 -4 -103 -5 -28 -1 -28 -1 -25 -63 l3 -63 30 3 c17 2 38 12 48
24 16 19 17 17 15 -68 -1 -68 -3 -75 -5 -32 l-4 58 -30 -16 c-40 -20 -77 -21
-117 0 l-32 17 0 -124 0 -124 -25 5 c-14 2 -34 16 -45 30 l-20 25 -1 -24 c-1
-21 -2 -21 -10 6 -9 29 -1 93 8 68 3 -7 13 -13 24 -13 11 0 26 -14 36 -33 l18
-32 3 134 c2 124 4 133 18 113 10 -14 26 -22 45 -22 l29 0 0 65 c0 36 -3 65
-7 66 -5 0 -44 2 -87 4 -194 9 -311 70 -336 175 -11 48 -13 50 -68 70 -32 11
-66 24 -77 29 -11 5 -36 15 -55 22 -50 18 -298 126 -343 149 -22 11 -47 20
-57 20 -10 0 -20 4 -22 10 -1 5 -20 16 -41 25 l-37 15 0 -132 c0 -73 3 -218 7
-321 l6 -188 36 3 c28 2 36 8 41 28 8 32 20 -140 20 -283 0 -60 5 -117 11
-128 7 -15 7 -24 -1 -34 -19 -22 -3 -133 20 -140 24 -8 50 4 50 24 2 92 -2
512 -6 686 -3 121 -2 217 2 212 4 -4 11 -191 16 -415 5 -224 11 -435 14 -469
l6 -62 -159 -4 c-87 -1 1915 -4 4450 -5 l4607 -2 0 4800 0 4800 -4800 0 -4800
0 0 -4800z m2510 2404 c25 -3 53 -6 63 -6 9 1 17 -4 17 -9 0 -6 5 -7 10 -4 6
4 17 1 25 -5 8 -7 15 -10 15 -7 0 10 92 -23 123 -45 17 -12 37 -23 45 -24 31
-5 154 -112 145 -127 -3 -6 -1 -7 4 -4 15 9 117 -109 107 -124 -4 -8 -3 -9 4
-5 10 6 36 -27 37 -47 0 -4 5 -11 11 -15 14 -9 57 -92 47 -92 -4 0 1 -6 12
-13 12 -9 15 -19 10 -28 -5 -8 -5 -11 0 -7 8 8 57 -87 58 -112 0 -8 3 -17 6
-20 6 -4 28 -71 67 -198 7 -24 11 -49 7 -57 -3 -8 -1 -15 4 -15 5 0 10 -6 10
-12 0 -7 7 -47 16 -88 9 -41 15 -82 15 -90 0 -8 3 -28 7 -45 4 -16 9 -44 10
-61 1 -17 5 -36 9 -43 4 -6 6 -24 5 -39 -1 -15 1 -38 5 -52 4 -14 8 -59 10
-100 2 -41 6 -86 9 -100 13 -57 27 -503 27 -865 0 -6 9 -11 19 -11 11 0 17 4
14 9 -2 4 2 19 11 32 9 13 18 32 20 42 9 41 19 63 28 63 5 0 6 5 3 10 -3 6 -1
10 5 10 6 0 8 5 5 10 -3 6 -2 10 2 10 5 0 9 9 10 20 1 12 12 37 25 58 13 20
23 40 24 45 1 4 2 12 3 18 0 5 5 8 10 5 5 -4 7 4 3 16 -4 16 -2 19 8 13 9 -6
11 -4 6 4 -5 7 0 19 10 27 11 9 13 13 7 9 -8 -4 -6 6 5 27 9 18 20 35 25 36 4
2 4 8 1 13 -3 6 0 17 7 25 7 9 14 23 15 31 2 8 10 23 18 32 9 10 13 21 9 24
-3 4 -1 7 5 7 6 0 9 6 6 13 -3 8 2 20 11 27 8 7 15 19 15 26 0 8 5 14 11 14 5
0 8 4 5 9 -9 13 4 42 15 35 5 -3 8 -2 7 3 -6 17 26 93 39 93 7 0 13 5 13 11 0
5 -4 8 -9 4 -10 -6 37 101 117 265 26 52 47 97 47 100 0 3 20 44 43 92 23 48
42 92 42 98 0 6 5 8 11 4 7 -4 10 -1 7 7 -3 8 3 30 14 49 10 19 18 40 18 47 0
7 5 13 11 13 5 0 7 5 3 12 -4 6 1 17 12 25 10 8 18 16 16 19 -6 9 41 113 49
108 4 -2 11 1 15 7 4 8 3 9 -4 5 -15 -9 -15 -4 1 28 8 14 17 23 21 19 4 -4 4
0 0 10 -3 10 -1 17 6 17 6 0 8 4 5 10 -3 5 2 24 12 42 17 33 19 39 22 59 1 14
82 48 139 59 26 5 59 12 75 16 24 6 27 4 28 -22 1 -16 4 -45 6 -64 2 -19 5
-51 7 -71 2 -20 6 -41 10 -48 4 -6 2 -19 -6 -28 -11 -14 -11 -16 0 -9 10 6 13
2 11 -15 -1 -13 1 -31 4 -39 3 -8 13 -69 22 -135 9 -66 19 -136 22 -155 12
-69 25 -167 26 -207 1 -17 5 -29 10 -26 4 2 7 -13 8 -34 0 -21 3 -49 5 -63 18
-98 20 -130 10 -130 -8 0 -7 -3 0 -8 12 -7 25 -115 28 -224 0 -32 4 -58 7 -58
10 0 16 -58 8 -72 -4 -7 -3 -16 4 -20 9 -6 8 -8 -3 -8 -11 0 -12 -2 -3 -8 7
-5 15 -41 18 -87 3 -44 9 -103 14 -132 5 -33 4 -50 -2 -46 -5 3 -6 -4 -1 -18
4 -13 9 -37 10 -54 1 -16 3 -30 4 -30 2 0 19 -194 20 -237 0 -26 50 37 50 63
0 6 11 26 25 46 13 20 21 41 18 46 -4 6 1 8 11 4 14 -5 15 -3 7 10 -7 13 -4
25 11 45 10 15 16 28 11 28 -4 0 1 7 11 15 11 8 17 15 13 15 -4 0 3 19 15 42
12 24 23 49 24 56 1 8 11 23 21 35 10 11 12 17 4 12 -10 -6 -12 -4 -7 4 5 7
15 10 23 6 13 -4 14 -3 3 10 -9 11 -9 15 -1 15 7 0 9 5 6 10 -3 6 -2 10 4 10
6 0 8 6 5 14 -3 7 2 20 10 29 8 8 12 17 9 21 -3 3 2 8 11 12 9 3 13 10 10 16
-3 5 1 17 9 26 15 16 17 21 17 40 0 5 8 17 18 28 10 10 19 21 19 24 1 3 5 14
8 25 29 87 41 108 59 98 8 -4 7 -2 -1 7 -14 15 4 63 20 53 6 -3 7 -1 3 5 -7
11 47 136 71 163 7 9 13 20 12 25 -2 5 6 27 16 49 10 22 19 42 20 45 1 3 8 20
14 37 7 18 17 31 21 28 5 -3 7 2 6 12 -2 10 9 45 25 78 16 33 29 66 29 74 0 8
6 11 18 6 14 -5 15 -4 5 6 -16 16 -17 33 -1 23 6 -4 8 -3 5 3 -8 12 10 71 28
93 7 8 10 21 8 28 -3 6 0 12 7 12 6 0 9 4 6 8 -7 12 15 82 26 82 5 0 7 4 4 9
-4 5 -1 22 5 38 6 15 13 44 16 63 2 19 7 42 10 50 11 29 1 75 -20 91 -24 20
-74 29 -172 32 -78 2 -73 -5 -60 92 3 27 11 55 17 62 8 10 101 13 411 13 l400
0 -7 -62 c-13 -115 -6 -108 -102 -108 -69 0 -87 -3 -103 -19 -11 -11 -17 -21
-15 -24 3 -2 -8 -26 -23 -53 -16 -27 -37 -68 -47 -91 -10 -23 -25 -44 -33 -47
-8 -3 -12 -10 -8 -15 7 -12 -35 -101 -48 -101 -4 0 -6 -4 -3 -8 3 -5 -4 -19
-15 -30 -10 -12 -19 -24 -18 -27 3 -16 -25 -64 -34 -58 -5 3 -7 1 -3 -5 6 -10
-51 -132 -74 -159 -6 -7 -8 -13 -5 -13 4 0 -2 -12 -13 -27 -10 -16 -40 -73
-67 -128 -27 -55 -56 -106 -64 -113 -9 -8 -10 -11 -3 -7 6 3 12 4 12 1 0 -2
-6 -11 -12 -18 -19 -20 -73 -129 -70 -140 1 -5 -2 -7 -7 -4 -5 3 -11 -8 -15
-25 -4 -20 -10 -28 -17 -23 -7 4 -9 3 -6 -2 7 -13 -27 -89 -59 -131 -13 -17
-24 -35 -24 -39 0 -14 -62 -134 -69 -134 -4 0 -8 -6 -8 -14 0 -8 -8 -30 -17
-50 -14 -30 -20 -35 -32 -25 -9 7 -14 8 -14 1 0 -6 5 -12 11 -14 5 -2 7 -11 4
-21 -4 -9 -12 -14 -18 -10 -6 3 -7 1 -3 -5 4 -6 -9 -41 -29 -77 -20 -36 -34
-65 -30 -65 3 0 -6 -18 -19 -39 -14 -21 -22 -42 -19 -45 4 -3 1 -6 -5 -6 -6 0
-14 -10 -18 -22 -3 -13 -13 -30 -20 -39 -8 -9 -16 -26 -19 -37 -5 -27 -50 -94
-57 -86 -3 3 -9 0 -14 -7 -4 -8 -3 -10 4 -5 26 16 -16 -89 -42 -106 -6 -4 -7
-8 -3 -8 10 0 -30 -76 -55 -105 -17 -20 -18 -23 -18 -50 0 -8 -11 -25 -25 -39
-21 -22 -31 -44 -34 -79 -1 -5 -5 -5 -11 -2 -6 4 -7 -1 -3 -11 4 -12 3 -15 -5
-10 -7 4 -10 2 -6 -7 3 -8 -2 -20 -11 -27 -8 -7 -15 -18 -15 -26 0 -7 -7 -19
-15 -28 -9 -8 -16 -18 -15 -21 1 -21 -1 -25 -12 -19 -6 4 -8 3 -5 -4 11 -16
-3 -40 -21 -37 -9 1 -23 -2 -29 -7 -7 -6 -19 -8 -27 -5 -7 3 -19 0 -25 -6 -8
-8 -11 -7 -11 3 0 10 -3 9 -12 -3 -12 -15 -50 -22 -98 -18 -13 1 -15 46 -16
339 -1 185 -7 427 -14 537 -15 250 -17 275 -24 355 -4 36 -8 90 -11 120 -2 30
-5 55 -6 55 0 0 -2 23 -3 51 -2 28 -6 55 -9 61 -4 6 -7 22 -6 34 0 13 -4 51
-10 84 -5 33 -13 83 -16 110 -11 84 -50 307 -61 348 -6 20 -24 23 -24 5 -1
-24 -47 -108 -55 -100 -5 4 -5 1 -1 -5 8 -14 -17 -57 -26 -47 -3 3 -9 0 -14
-7 -4 -8 -3 -10 4 -5 18 11 14 -5 -5 -27 -13 -15 -14 -19 -3 -13 9 5 8 2 -2
-7 -10 -8 -15 -16 -12 -20 6 -6 -32 -84 -55 -111 -10 -12 -11 -16 -3 -12 11 7
12 4 3 -13 -7 -11 -17 -21 -23 -21 -6 0 -9 -3 -5 -6 3 -3 -18 -52 -46 -108
-29 -56 -53 -109 -55 -117 -9 -36 -63 -139 -73 -139 -7 0 -9 -3 -6 -7 4 -3 1
-13 -6 -21 -10 -13 -9 -14 2 -8 9 6 8 0 -4 -17 -11 -17 -22 -24 -33 -20 -13 4
-12 2 3 -10 11 -9 15 -17 9 -17 -6 0 -19 -20 -28 -45 -10 -25 -22 -45 -27 -45
-6 0 -8 -4 -5 -9 3 -5 -3 -20 -14 -34 -11 -14 -20 -29 -19 -34 3 -19 -2 -34
-10 -29 -5 3 -11 -4 -14 -17 -9 -41 -114 -256 -122 -249 -4 4 -6 0 -5 -8 3
-21 -11 -60 -21 -60 -5 0 -8 -3 -7 -7 4 -16 -14 -53 -23 -48 -5 4 -9 -4 -9
-18 0 -13 -8 -32 -18 -43 -10 -10 -16 -26 -14 -35 2 -9 -4 -24 -13 -33 -9 -9
-13 -16 -8 -16 4 0 2 -4 -5 -9 -7 -4 -14 -14 -16 -22 -1 -8 -20 -51 -42 -96
-27 -56 -43 -81 -53 -77 -11 3 -11 1 -2 -10 12 -15 4 -49 -10 -40 -5 3 -6 -3
-2 -12 5 -13 3 -15 -7 -9 -9 5 -11 4 -6 -3 9 -15 -22 -75 -34 -67 -6 4 -7 -1
-3 -11 5 -13 3 -15 -7 -9 -9 5 -11 4 -6 -3 4 -7 -5 -34 -19 -60 -22 -40 -33
-50 -68 -60 -53 -14 -102 -23 -147 -25 l-35 -2 1 80 c2 110 16 696 19 770 3
56 3 375 1 627 -1 60 -3 108 -6 108 -5 0 -10 62 -14 175 0 22 -4 42 -7 45 -4
3 -9 37 -12 75 -7 97 -70 407 -94 465 -6 14 -14 41 -18 60 -4 19 -11 40 -14
45 -4 6 -15 31 -25 57 -9 25 -30 72 -46 104 -16 31 -27 61 -23 67 3 6 2 7 -4
4 -5 -3 -18 8 -28 26 -11 18 -17 32 -15 32 8 0 -163 169 -185 183 -11 7 -42
23 -68 35 -26 13 -45 26 -40 30 4 5 0 5 -9 2 -9 -4 -35 -1 -58 5 -45 12 -220
19 -220 9 0 -4 -15 -9 -33 -12 -18 -3 -62 -19 -97 -35 -35 -17 -69 -28 -74
-25 -6 3 -8 3 -4 -2 9 -10 -113 -105 -127 -98 -5 4 -7 3 -3 -1 9 -11 -14 -36
-26 -28 -5 3 -6 1 -3 -5 8 -13 -68 -85 -79 -75 -4 4 -4 2 -1 -4 3 -6 -13 -32
-36 -59 l-42 -48 -36 24 c-20 13 -44 29 -53 34 -14 9 -9 19 36 77 29 37 58 65
65 63 7 -2 15 1 19 7 4 7 3 8 -4 4 -25 -15 -10 12 21 40 18 16 45 46 61 67 16
20 32 37 37 37 5 0 26 18 46 40 20 23 42 39 49 36 8 -3 13 0 11 7 -1 7 4 11
11 9 6 -1 11 3 10 9 -2 6 3 14 11 17 9 3 11 0 6 -8 -6 -9 -4 -11 4 -6 7 5 10
10 7 13 -5 6 31 43 42 43 5 0 17 8 26 19 28 31 190 106 246 115 9 1 20 5 26 9
6 4 36 9 65 13 30 3 56 8 58 10 5 4 33 2 131 -12z m5605 -430 c54 -3 102 -7
105 -9 3 -1 34 -6 70 -10 36 -3 83 -11 105 -17 39 -11 49 -12 108 -16 18 -1
27 -8 27 -19 0 -12 3 -14 8 -6 6 9 25 7 81 -7 41 -11 75 -21 77 -23 7 -6 -60
-215 -68 -211 -4 3 -5 -1 -3 -9 6 -14 -61 -257 -75 -271 -5 -5 -6 -15 -3 -24
4 -10 2 -13 -5 -8 -8 5 -10 2 -6 -8 5 -14 -6 -16 -73 -16 l-79 0 2 135 c1 74
-1 133 -6 130 -5 -3 -11 3 -15 14 -9 29 -96 106 -151 134 -193 96 -477 112
-698 40 -142 -47 -324 -178 -425 -305 -29 -37 -58 -65 -62 -62 -5 3 -8 0 -7
-8 2 -7 -3 -12 -10 -10 -8 1 -11 -2 -7 -8 3 -5 -4 -25 -17 -43 -13 -17 -30
-45 -40 -62 -9 -16 -21 -29 -28 -27 -6 1 -9 -2 -5 -8 7 -11 -25 -71 -35 -65
-4 2 -7 -2 -7 -9 0 -26 -25 -76 -36 -69 -5 3 -7 1 -4 -5 9 -14 -3 -43 -14 -36
-5 3 -6 -2 -3 -10 3 -9 1 -16 -5 -16 -6 0 -8 -6 -5 -14 3 -8 1 -17 -5 -21 -6
-3 -11 -14 -11 -24 0 -9 -5 -22 -12 -29 -6 -6 -13 -18 -14 -26 -1 -8 -14 -44
-29 -81 -14 -37 -27 -75 -28 -86 -1 -10 -5 -19 -10 -19 -4 0 -6 -4 -3 -8 5 -9
-20 -104 -35 -135 -6 -10 -7 -21 -5 -26 3 -4 1 -23 -4 -42 -21 -72 -34 -211
-34 -371 -1 -93 2 -168 5 -168 3 0 5 -10 4 -22 -1 -13 1 -25 5 -28 5 -3 9 -18
11 -35 2 -16 8 -36 14 -44 7 -11 7 -13 -3 -7 -8 4 -5 -6 6 -26 10 -18 26 -53
37 -78 10 -25 25 -53 34 -63 8 -9 15 -27 16 -40 1 -12 7 -22 13 -22 6 0 19
-11 29 -25 9 -14 26 -33 37 -44 12 -10 19 -23 18 -30 -2 -6 0 -8 4 -4 4 4 28
-8 53 -26 58 -43 178 -106 201 -106 9 0 20 -3 24 -7 7 -7 7 -7 114 -18 40 -5
75 -11 77 -16 3 -4 20 -3 38 2 17 5 59 9 92 9 109 0 230 19 470 75 6 1 23 7
38 13 15 7 31 11 35 10 4 -1 20 4 36 11 16 6 36 13 45 14 9 1 21 6 28 10 6 4
19 4 29 0 10 -4 15 -2 11 4 -6 10 79 45 98 41 6 -2 9 -10 8 -18 -2 -8 -5 -40
-8 -70 -10 -89 -18 -103 -90 -134 -35 -15 -68 -28 -72 -28 -13 0 -106 -36
-147 -57 -5 -2 -6 1 -2 8 4 6 -7 3 -26 -7 -31 -18 -144 -50 -303 -86 -180 -40
-466 -57 -605 -36 -36 6 -80 13 -97 15 -41 6 -174 50 -205 67 -23 12 -29 14
-49 17 -5 0 -7 5 -4 11 3 5 0 7 -8 4 -8 -3 -20 2 -27 11 -7 8 -18 15 -24 15
-19 1 -121 87 -118 99 1 7 -2 10 -8 6 -5 -3 -10 -1 -10 5 0 6 -4 9 -9 6 -5 -3
-16 4 -24 17 -9 12 -29 38 -46 57 -17 19 -29 41 -26 48 3 7 1 10 -5 7 -11 -7
-32 29 -22 40 4 5 2 5 -4 2 -11 -6 -79 127 -87 173 -3 14 -10 38 -16 53 -30
78 -44 188 -46 357 -1 198 4 302 14 296 4 -3 5 11 3 30 -3 20 0 34 6 34 6 0 9
10 7 22 -3 12 2 47 11 77 16 59 23 86 29 111 2 8 4 16 5 18 2 1 3 6 4 11 0 5
4 12 8 16 4 4 4 14 1 23 -4 9 -2 13 4 9 6 -4 11 -1 10 6 -1 42 3 50 20 36 15
-13 15 -12 2 9 -13 21 -12 24 9 40 16 13 19 21 12 28 -8 8 -7 16 5 28 9 9 13
16 9 16 -3 0 0 7 7 16 7 9 14 23 16 32 1 10 17 43 35 75 18 32 39 69 46 83 7
13 17 24 23 24 5 0 8 6 6 13 -1 6 4 11 11 9 8 -1 11 2 7 8 -19 31 355 450 391
436 6 -2 14 3 17 13 6 24 182 139 299 196 159 78 378 138 563 154 95 9 144 8
380 -5z m-7488 -4120 c-3 -3 -12 -4 -19 -1 -8 3 -5 6 6 6 11 1 17 -2 13 -5z
m-502 -119 c20 -16 20 -16 -2 -5 -16 7 -23 7 -23 0 0 -5 6 -11 13 -11 6 -1 22
-3 35 -4 35 -4 49 -21 35 -44 -9 -14 -9 -21 0 -31 25 -26 -74 34 -118 73 -6 5
-2 5 10 1 16 -6 18 -5 8 7 -7 7 -13 21 -13 31 0 20 15 15 55 -17z m1125 -85
c0 -5 -2 -10 -4 -10 -3 0 -8 5 -11 10 -3 6 -1 10 4 10 6 0 11 -4 11 -10z m90
-55 c0 -5 -5 -3 -10 5 -5 8 -10 20 -10 25 0 6 5 3 10 -5 5 -8 10 -19 10 -25z
m-363 -87 c-3 -8 -6 -5 -6 6 -1 11 2 17 5 13 3 -3 4 -12 1 -19z m-652 -44 c9
-15 12 -23 6 -20 -11 7 -35 46 -28 46 3 0 12 -12 22 -26z m555 -15 c0 -4 -6
-9 -12 -12 -9 -3 -13 5 -13 24 0 26 1 27 13 12 6 -9 12 -20 12 -24z m77 -14
c0 -8 -4 -12 -9 -9 -5 3 -6 10 -3 15 9 13 12 11 12 -6z m-557 -36 l35 -30 -38
22 c-37 21 -56 39 -40 39 4 0 24 -14 43 -31z m100 -59 c8 -5 11 -10 5 -10 -5
0 -17 5 -25 10 -8 5 -10 10 -5 10 6 0 17 -5 25 -10z m75 -31 c15 -14 -7 -10
-35 7 l-25 15 25 -7 c14 -3 29 -10 35 -15z m400 -17 c-3 -3 -11 0 -18 7 -9 10
-8 11 6 5 10 -3 15 -9 12 -12z m110 -42 c3 -6 -1 -7 -9 -4 -18 7 -21 14 -7 14
6 0 13 -4 16 -10z m110 -48 c-3 -3 -11 0 -18 7 -9 10 -8 11 6 5 10 -3 15 -9
12 -12z m612 -144 c-3 -8 -6 -5 -6 6 -1 11 2 17 5 13 3 -3 4 -12 1 -19z m-102
-28 c8 -13 -5 -13 -25 0 -13 8 -13 10 2 10 9 0 20 -4 23 -10z m222 -56 c13 -4
21 -10 18 -14 -6 -9 -53 -1 -61 11 -6 10 11 11 43 3z m18 -69 c23 -10 25 -13
10 -14 -11 0 -36 9 -55 20 -26 15 -29 18 -10 13 14 -4 39 -12 55 -19z m-1668
-162 c-2 -16 -4 -5 -4 22 0 28 2 40 4 28 2 -13 2 -35 0 -50z m390 -530 c-2
-16 -4 -3 -4 27 0 30 2 43 4 28 2 -16 2 -40 0 -55z m1958 -71 c-8 -9 -25 20
-18 31 3 5 10 2 15 -7 6 -10 7 -20 3 -24z m-2045 -127 c0 -140 -7 -183 -24
-139 -3 9 -2 12 5 8 7 -4 10 36 9 132 -2 154 -2 154 5 154 3 0 5 -70 5 -155z
m2141 -33 c-7 -2 -18 1 -23 6 -8 8 -4 9 13 5 13 -4 18 -8 10 -11z m-403 -49
c-10 -2 -26 -2 -35 0 -10 3 -2 5 17 5 19 0 27 -2 18 -5z m-511 -70 c-3 -10 -5
-4 -5 12 0 17 2 24 5 18 2 -7 2 -21 0 -30z m-380 -25 c-2 -13 -4 -5 -4 17 -1
22 1 32 4 23 2 -10 2 -28 0 -40z m161 44 c7 -5 10 -16 6 -25 -7 -19 -39 -23
-49 -7 -4 6 -11 8 -16 5 -5 -4 -9 0 -9 9 0 23 42 34 68 18z m119 -24 c-3 -8
-6 -5 -6 6 -1 11 2 17 5 13 3 -3 4 -12 1 -19z m570 16 c-3 -3 -12 -4 -19 -1
-8 3 -5 6 6 6 11 1 17 -2 13 -5z m40 -10 c-3 -3 -12 -4 -19 -1 -8 3 -5 6 6 6
11 1 17 -2 13 -5z m40 -10 c-3 -3 -12 -4 -19 -1 -8 3 -5 6 6 6 11 1 17 -2 13
-5z m318 -12 c-3 -3 -11 0 -18 7 -9 10 -8 11 6 5 10 -3 15 -9 12 -12z m-326
-48 c2 -2 1 -7 -2 -11 -4 -3 -22 1 -40 10 l-32 16 35 -6 c19 -3 37 -7 39 -9z
m-721 -206 c0 -68 -3 -109 -5 -91 -3 23 -10 33 -28 37 -20 5 -45 48 -45 77 0
21 32 6 50 -23 l20 -33 0 78 c0 42 2 77 5 77 3 0 4 -55 3 -122z m-1360 -13
c23 -50 10 -80 -24 -57 -9 6 -34 64 -34 78 0 2 11 4 23 4 16 0 28 -9 35 -25z
m1549 -27 c-3 -8 -6 -5 -6 6 -1 11 2 17 5 13 3 -3 4 -12 1 -19z m-144 -249
l42 -44 6 75 5 75 3 -70 c2 -38 5 -82 7 -97 1 -16 0 -28 -4 -28 -3 0 -26 19
-49 42 l-43 42 -1 -44 -1 -45 -10 45 c-13 57 -24 70 -59 70 -35 0 -37 -16 -9
-62 27 -45 26 -48 -20 -48 -44 0 -52 18 -25 54 23 31 19 56 -9 56 -36 0 -56
-26 -56 -71 0 -21 -4 -39 -10 -39 -6 0 -9 42 -9 108 1 59 3 96 6 82 2 -14 6
-35 8 -47 l5 -22 38 25 c20 14 40 35 44 47 6 21 6 21 7 -3 1 -19 10 -29 41
-42 l40 -17 2 52 2 52 3 -51 c3 -44 10 -57 46 -95z m-813 -60 c0 -29 0 -29
-60 -29 -52 0 -60 2 -60 19 0 29 26 44 65 38 20 -3 35 -2 35 4 0 6 5 7 10 4 6
-3 10 -19 10 -36z"/>
<path d="M1799 6913 c-13 -16 -12 -17 4 -4 16 13 21 21 13 21 -2 0 -10 -8 -17
-17z"/>
<path d="M4026 5662 c-3 -5 1 -9 9 -9 8 0 12 4 9 9 -3 4 -7 8 -9 8 -2 0 -6 -4
-9 -8z"/>
<path d="M5255 5189 c-4 -6 -5 -12 -2 -15 2 -3 7 2 10 11 7 17 1 20 -8 4z"/>
<path d="M3650 5075 c0 -2 6 -8 13 -14 10 -8 14 -7 14 2 0 8 -6 14 -14 14 -7
0 -13 -1 -13 -2z"/>
<path d="M1339 2322 c8 -6 9 -11 3 -13 -6 -2 -13 -17 -16 -34 -6 -28 -6 -28 5
-7 14 26 31 30 23 5 -5 -14 -4 -15 4 -4 12 17 0 54 -19 59 -12 3 -12 2 0 -6z"/>
<path d="M1395 2273 c8 -7 20 -13 28 -13 9 0 17 -6 20 -12 2 -8 8 -9 13 -4 5
5 4 11 -3 13 -7 3 -13 10 -13 17 0 7 -12 13 -29 13 -24 0 -27 -3 -16 -14z"/>
<path d="M674 2211 c23 -25 144 -87 153 -78 11 11 -6 23 -91 61 -60 28 -75 32
-62 17z"/>
<path d="M1586 2164 c-8 -20 0 -32 14 -18 5 5 5 15 1 22 -6 11 -10 10 -15 -4z"/>
<path d="M1370 1915 c-16 -19 -8 -27 43 -44 52 -17 59 -5 17 30 -41 33 -43 34
-60 14z"/>
<path d="M427 1844 c-13 -13 8 -34 63 -63 40 -21 59 -27 63 -18 8 24 -6 38
-60 63 -63 27 -58 26 -66 18z"/>
<path d="M1296 1793 c-51 -102 -17 -213 80 -263 16 -8 47 -29 68 -47 47 -39
53 -40 59 -10 4 19 4 18 6 -5 1 -28 38 -71 53 -62 26 16 -6 94 -39 94 -6 0
-27 16 -47 35 l-37 35 30 0 c17 0 31 5 31 11 0 5 5 7 11 4 22 -14 60 6 74 38
8 18 14 27 15 21 0 -15 57 -5 71 13 17 19 0 35 -42 38 -18 2 -38 10 -44 18 -6
8 -26 19 -45 25 -19 5 -73 26 -118 46 -46 20 -90 36 -98 36 -7 0 -20 -12 -28
-27z"/>
<path d="M424 1775 c-4 -8 -15 -15 -25 -15 -10 0 -19 -4 -19 -8 0 -12 152 -96
172 -95 10 1 18 -4 18 -11 0 -7 19 -21 43 -32 23 -10 44 -21 47 -25 21 -26
516 -263 531 -253 5 3 9 13 9 22 0 9 5 24 11 32 7 11 9 4 7 -29 l-3 -45 85
-37 c47 -21 90 -38 97 -38 7 -1 13 17 16 42 l4 42 1 -47 c2 -45 4 -49 38 -63
20 -8 38 -15 40 -15 2 0 4 33 4 74 l0 74 -36 12 c-28 10 -38 10 -44 0 -5 -9
-9 -8 -13 3 -4 11 -130 66 -167 73 -3 0 -18 6 -35 13 -16 7 -57 23 -91 36 -33
12 -86 34 -117 49 -32 14 -60 26 -63 26 -3 0 -62 25 -131 56 -69 30 -132 53
-139 50 -8 -3 -14 0 -14 7 0 8 -16 21 -35 30 -44 21 -43 21 -48 0 -4 -14 -5
-12 -6 5 -1 17 -15 29 -63 52 -72 35 -67 34 -74 15z"/>
<path d="M570 1761 c0 -21 12 -31 53 -49 25 -11 27 -10 27 12 0 17 -9 28 -34
40 -43 20 -46 20 -46 -3z"/>
<path d="M662 1718 c3 -26 21 -35 273 -143 187 -80 437 -175 460 -175 23 0 18
28 -7 42 -13 7 -66 27 -118 45 -90 31 -122 44 -162 64 -10 5 -22 9 -28 9 -5 0
-39 14 -75 30 -36 17 -68 30 -71 30 -2 0 -55 23 -116 51 -163 74 -160 73 -156
47z"/>
<path d="M1684 1650 c-12 -5 -34 -25 -50 -45 -23 -31 -26 -40 -16 -56 7 -10
12 -22 12 -26 0 -5 -5 -1 -10 7 -6 9 -10 10 -10 3 0 -6 5 -15 10 -18 6 -3 10
-21 10 -39 0 -27 6 -36 38 -53 20 -12 51 -33 67 -48 28 -25 87 -55 106 -55 5
0 9 14 9 31 0 17 4 28 10 24 6 -3 10 -2 10 3 0 6 7 13 16 16 8 3 12 2 9 -3 -3
-5 3 -12 12 -14 17 -4 17 -5 1 -6 -10 0 -18 -8 -18 -17 0 -14 3 -14 15 -4 8 7
16 11 16 9 1 -2 3 -17 5 -33 2 -16 9 -33 16 -37 9 -6 4 -9 -14 -9 -16 0 -28
-4 -28 -9 0 -16 30 -41 58 -47 53 -11 84 -27 71 -35 -22 -13 10 -39 48 -39 30
0 33 2 23 19 -11 22 1 23 38 3 12 -7 22 -11 22 -8 0 2 16 0 36 -6 20 -5 46
-11 58 -14 11 -2 33 -6 49 -10 15 -3 27 -1 27 4 0 11 -56 61 -71 63 -5 1 -13
3 -19 4 -5 1 -18 3 -27 4 -15 2 -14 4 5 11 12 5 22 12 22 15 0 4 -4 4 -8 1 -5
-3 -22 8 -37 24 -16 17 -32 30 -36 30 -4 0 -27 19 -51 43 -24 23 -56 50 -71
60 -16 10 -25 23 -21 29 4 6 3 8 -4 4 -6 -3 -46 23 -89 59 -43 37 -85 72 -93
79 -8 7 -37 31 -63 54 -52 45 -51 45 -83 32z m321 -380 c17 -8 16 -9 -7 -7
-15 2 -30 6 -34 10 -10 10 17 8 41 -3z m140 -40 c-3 -5 -10 -10 -16 -10 -5 0
-9 5 -9 10 0 6 7 10 16 10 8 0 12 -4 9 -10z"/>
<path d="M1533 1568 c-30 -15 -29 -34 3 -54 21 -14 27 -15 34 -4 4 7 6 19 3
26 -2 6 1 15 7 19 9 6 9 10 -1 16 -17 11 -18 10 -46 -3z"/>
<path d="M572 1419 c2 -114 6 -143 18 -150 45 -24 149 -73 189 -89 25 -10 113
-45 195 -79 81 -34 161 -61 176 -61 16 0 30 -5 32 -11 2 -6 12 7 22 29 18 41
18 42 -3 91 -11 27 -21 64 -21 81 0 28 -5 33 -47 52 -83 35 -364 174 -461 227
-51 28 -95 51 -98 51 -2 0 -3 -64 -2 -141z"/>
<path d="M1420 1468 c0 -18 18 -34 28 -24 3 4 -2 14 -11 23 -16 16 -17 16 -17
1z"/>
<path d="M1422 1409 c2 -15 14 -26 41 -35 36 -13 37 -12 37 11 0 16 -7 26 -22
30 -61 18 -60 18 -56 -6z"/>
<path d="M1630 1406 c0 -15 16 -30 43 -39 11 -4 17 -1 17 8 0 8 -6 15 -14 15
-8 0 -16 7 -20 15 -7 19 -26 20 -26 1z"/>
<path d="M1520 1377 c0 -19 8 -26 37 -35 20 -6 39 -9 41 -7 7 7 -14 28 -47 48
l-31 18 0 -24z"/>
<path d="M1643 1342 c20 -22 93 -59 127 -65 14 -2 33 -7 43 -10 45 -18 49 -15
17 14 -36 32 -70 49 -105 53 -11 1 -30 8 -42 14 -12 7 -29 12 -39 12 -16 0
-16 -1 -1 -18z"/>
<path d="M380 1322 c0 -16 55 -52 79 -52 19 0 3 32 -25 51 -36 24 -54 24 -54
1z"/>
<path d="M1518 1308 c-2 -13 -1 -44 0 -71 4 -44 7 -49 39 -62 19 -8 39 -12 44
-9 5 3 9 1 9 -4 0 -31 146 -48 238 -28 40 9 41 22 1 44 -17 9 -50 31 -72 48
-77 57 -162 92 -171 71 -2 -7 -5 -5 -5 4 -1 10 -13 19 -32 23 -46 9 -47 8 -51
-16z"/>
<path d="M480 1272 c0 -11 14 -25 35 -35 45 -21 45 -21 45 3 0 11 -12 26 -30
35 -38 20 -50 19 -50 -3z"/>
<path d="M1865 1280 c3 -5 10 -10 16 -10 5 0 9 5 9 10 0 6 -7 10 -16 10 -8 0
-12 -4 -9 -10z"/>
<path d="M570 1231 c0 -21 33 -38 255 -133 224 -95 299 -122 303 -110 3 9 9 9
24 1 17 -9 39 -6 27 5 -2 2 -69 29 -148 61 -80 32 -214 89 -299 126 -85 38
-156 69 -158 69 -2 0 -4 -8 -4 -19z"/>
<path d="M1800 1242 c0 -6 29 -32 65 -57 58 -42 68 -45 101 -39 l38 7 -40 33
c-21 19 -55 38 -74 43 -78 21 -90 23 -90 13z"/>
<path d="M1250 1223 c1 -27 102 -93 141 -93 36 0 19 31 -28 51 -27 11 -61 27
-77 35 -33 16 -36 17 -36 7z"/>
<path d="M1420 1136 c0 -10 9 -16 24 -16 13 0 33 -3 43 -6 16 -6 16 -5 3 9 -8
9 -27 19 -42 22 -22 6 -28 4 -28 -9z"/>
<path d="M2485 1070 c-3 -6 1 -7 9 -4 18 7 21 14 7 14 -6 0 -13 -4 -16 -10z"/>
<path d="M1247 1063 c-10 -10 -8 -61 2 -67 16 -11 235 -86 248 -86 17 0 18 79
1 85 -7 2 -31 6 -53 9 -54 7 -93 19 -142 45 -47 24 -47 24 -56 14z"/>
<path d="M2035 1006 c51 -23 75 -28 75 -17 0 15 -30 27 -70 29 l-35 1 30 -13z"/>
<path d="M2560 1005 c0 -5 5 -17 10 -25 5 -8 10 -10 10 -5 0 6 -5 17 -10 25
-5 8 -10 11 -10 5z"/>
<path d="M1520 948 c0 -51 0 -51 67 -72 17 -6 22 -2 26 16 4 21 4 21 6 -3 1
-19 8 -29 25 -33 13 -3 31 -9 40 -12 12 -5 16 5 19 48 l3 53 2 -53 2 -54 53 6
c28 3 146 8 261 12 124 4 202 10 193 15 -21 12 -260 90 -264 86 -1 -2 -4 -13
-6 -25 -4 -28 -35 -62 -51 -56 -14 5 -57 77 -55 91 4 24 -6 30 -61 31 -54 2
-62 -1 -69 -20 -8 -21 -8 -21 -13 -1 -5 19 -13 21 -92 20 l-86 -1 0 -48z"/>
<path d="M1290 944 c30 -14 64 -33 75 -43 17 -15 123 -61 141 -61 3 0 4 10 2
22 -3 19 -21 29 -128 65 -143 48 -168 52 -90 17z"/>
<path d="M1206 896 c8 -43 39 -83 87 -110 72 -41 317 -75 317 -44 0 11 2 10 9
0 9 -15 82 -13 80 3 0 6 -17 16 -36 24 -30 12 -36 12 -44 0 -7 -12 -9 -11 -9
2 0 22 -79 46 -91 27 -7 -10 -9 -9 -9 3 0 9 -6 16 -12 16 -7 -1 -42 2 -77 6
-71 9 -112 26 -153 64 -15 15 -33 23 -42 20 -8 -3 -17 -1 -20 6 -4 7 -4 -1 0
-17z"/>
<path d="M1526 873 c-3 -4 -6 -15 -6 -25 0 -15 8 -18 45 -18 25 0 45 5 45 10
0 6 -2 10 -4 10 -2 0 -19 7 -39 15 -19 8 -37 11 -41 8z"/>
<path d="M1340 866 c0 -2 7 -7 16 -10 8 -3 12 -2 9 4 -6 10 -25 14 -25 6z"/>
<path d="M1620 840 c0 -5 5 -10 11 -10 5 0 7 5 4 10 -3 6 -8 10 -11 10 -2 0
-4 -4 -4 -10z"/>
<path d="M1631 811 c-10 -6 -5 -12 22 -20 19 -7 39 -11 43 -10 5 1 26 -5 46
-14 48 -22 58 -21 58 3 0 12 -9 24 -23 29 -38 15 -131 22 -146 12z"/>
<path d="M1810 763 c0 -23 2 -24 55 -21 79 4 73 13 -22 38 -31 7 -33 6 -33
-17z"/>
<path d="M393 540 c4 -18 7 -113 7 -212 l0 -179 38 38 37 38 2 152 2 153 -37
17 c-20 9 -41 19 -46 21 -5 3 -6 -10 -3 -28z"/>
<path d="M535 550 c-3 -5 -15 -10 -27 -10 -20 0 -20 -3 -14 -132 3 -73 6 -147
6 -165 0 -17 4 -34 10 -38 5 -3 10 1 10 9 0 9 5 16 11 16 5 0 7 -4 4 -10 -3
-5 3 -10 14 -10 11 0 23 4 26 10 3 5 3 84 -1 175 -5 124 -10 165 -20 165 -7 0
-16 -4 -19 -10z"/>
<path d="M549 147 c-13 -29 0 -77 21 -77 12 0 13 70 1 89 -8 12 -12 10 -22
-12z"/>
<path d="M455 114 c-16 -25 -16 -27 2 -46 20 -19 20 -19 21 26 1 25 0 46 -2
46 -2 0 -11 -12 -21 -26z"/>
<path d="M147 48 c-6 -42 -3 -57 9 -45 11 11 17 87 7 87 -6 0 -13 -19 -16 -42z"/>
<path d="M181 43 c-14 -49 -5 -55 14 -10 18 43 18 47 5 47 -5 0 -14 -17 -19
-37z"/>
</g>
</svg>
